<svg t="1765805532059" class="icon" viewBox="0 0 1024 1024" version="1.1" xmlns="http://www.w3.org/2000/svg" p-id="25955" width="128" height="128"><path d="M508.1088 32.10752C240.26112 32.4096 22.59456 250.56768 22.90176 518.41536s218.46016 485.51424 486.30784 485.21216c267.84768-0.30208 485.51424-218.46016 485.21216-486.30784S775.95648 31.80544 508.1088 32.10752z" fill="#707070" p-id="25956"></path><path d="M167.37792 389.94944l2.19136-6.17472c5.632-16.80896 20.3264-28.06784 38.23104-29.31712 16.34304-1.17248 32.68096 8.36608 40.3456 23.37792 7.81824 15.32416 5.632 33.3824-5.7088 46.83264-1.32608 1.4848-2.65728 2.9696-4.14208 4.68992 31.6672 19.38944 63.17568 38.54848 94.52544 57.856a2867.92704 2867.92704 0 0 0 35.73248 21.8112c6.79936 3.98848 12.04224 2.816 15.71328-3.82976a264402.36032 264402.36032 0 0 0 108.4416-197.80608c-15.71328-7.97696-25.8816-20.1728-26.81856-38.23104-0.62464-12.66688 3.82976-23.53664 12.82048-32.36864 17.82784-17.3568 47.06816-15.71328 62.70464 3.51744 17.98144 22.04672 11.4944 47.8464-17.04448 67.24096a8455.5776 8455.5776 0 0 0 28.14464 51.21024c26.19392 47.6928 52.22912 95.22688 78.41792 142.91968 6.02112 11.02336 9.85088 12.04224 20.64384 5.632 40.4992-24.70912 80.9216-49.57184 121.4208-74.35264 1.87392-1.17248 3.67616-2.34496 5.8624-3.67616-8.36608-8.36608-13.68064-17.82784-14.30528-29.47584-1.17248-21.8112 13.83936-40.88832 34.87232-44.48768 21.89312-3.82976 42.21952 8.6784 48.71168 29.87008 0.47104 1.64352 1.17248 3.36384 1.79712 5.00224v14.69952c-6.88128 22.04672-21.03296 34.87232-45.34784 35.02592-0.86016 2.50368-1.79712 5.00224-2.50368 7.50592-23.69024 81.23392-47.38048 162.62656-71.07072 243.86048-3.0464 10.63424-6.79936 13.36832-17.51552 13.36832h-409.1392c-11.4944 0-15.01184-2.65728-18.14016-13.36832-19.31264-65.90976-38.38976-132.05504-57.7024-197.9648-5.16096-17.82784-10.47552-35.65056-15.71328-53.5552-18.14016 0-31.8208-7.1936-40.3456-22.83008-2.03264-3.82976-3.36384-8.13056-5.00224-12.19584-0.0768-5.08928-0.0768-9.93792-0.0768-14.78656z m341.12 357.22752h191.16544c17.04448 0 30.64832 12.04224 32.52224 28.22656 1.87904 16.33792-8.832 31.19616-25.33376 34.87232-2.34496 0.62464-4.84864 0.70144-7.1936 0.70144H317.17888c-14.5408 0-26.81856-8.6784-31.03744-21.8112-4.3776-13.1328-0.31232-27.99104 11.33568-35.49696 6.02112-3.82976 13.99296-6.48704 21.03296-6.48704 63.4112-0.31744 126.74048-0.00512 189.98784-0.00512z" fill="#FFFFFF" p-id="25957"></path></svg>