<svg version="1.1" id="Layer_1" xmlns="http://www.w3.org/2000/svg" xmlns:xlink="http://www.w3.org/1999/xlink" x="0px" y="0px"
	 width="100%" viewBox="0 0 338 244" enable-background="new 0 0 338 244" xml:space="preserve">
<path fill="#F9F9F9" opacity="1.000000" stroke="none" 
	d="
M218.000000,245.000000 
	C145.333359,245.000000 73.166710,245.000000 1.000048,245.000000 
	C1.000032,163.666718 1.000032,82.333427 1.000016,1.000103 
	C113.666588,1.000069 226.333176,1.000069 338.999817,1.000034 
	C338.999878,82.333229 338.999878,163.666458 338.999939,244.999847 
	C298.833344,245.000000 258.666656,245.000000 218.000000,245.000000 
M74.026077,95.002815 
	C70.750153,86.916695 73.057411,80.013901 80.426834,75.853241 
	C97.797050,66.046265 118.107780,73.877579 123.823441,92.713501 
	C132.544876,92.713501 141.308838,92.713501 150.470291,92.713501 
	C150.035004,78.670341 145.072647,67.287491 133.597443,59.149086 
	C118.944061,48.756672 102.448341,47.382275 85.327995,49.588032 
	C73.580727,51.101536 63.204674,55.519402 55.334221,64.825996 
	C37.302200,86.148361 45.640503,116.950958 71.916916,125.844803 
	C75.537704,127.070335 79.238495,128.077332 82.938187,129.048584 
	C94.514267,132.087570 106.185593,134.795746 117.661278,138.171661 
	C123.406624,139.861816 127.625763,143.762543 127.577316,150.457169 
	C127.527893,157.285187 124.431511,162.836548 117.953354,164.790543 
	C111.538422,166.725449 104.642426,167.826126 97.941734,167.901764 
	C81.756607,168.084457 75.114029,162.537750 71.123695,146.993454 
	C71.049416,146.704102 70.780853,146.464630 70.592140,146.202866 
	C61.823746,146.202866 53.055347,146.202866 44.308697,146.202866 
	C43.118317,163.894653 53.451958,179.436111 71.547829,186.298248 
	C89.095650,192.952545 107.102341,193.025848 125.005066,187.776428 
	C134.872162,184.883209 142.861481,178.931610 148.618759,170.276184 
	C162.769592,149.002029 154.177963,122.614746 130.268036,113.955971 
	C126.988953,112.768471 123.617729,111.801086 120.237335,110.933846 
	C108.310959,107.874146 96.285408,105.166557 84.467552,101.738976 
	C80.841423,100.687271 77.760674,97.755173 74.026077,95.002815 
M157.896255,158.552872 
	C157.896255,177.321915 157.896255,196.090958 157.896255,214.931122 
	C117.894463,214.931122 78.473907,214.931122 38.487438,214.931122 
	C38.487438,194.175262 38.487438,173.640244 38.487438,153.160736 
	C32.666416,153.160736 27.417070,153.160736 22.422691,153.160736 
	C22.422691,179.847519 22.422691,206.239502 22.422691,233.167511 
	C119.294556,233.167511 215.663452,233.167511 312.484589,233.167511 
	C312.484589,206.454041 312.484589,179.870193 312.484589,153.131973 
	C306.928955,153.131973 301.366058,153.131973 295.429382,153.131973 
	C295.429382,173.820068 295.429382,194.246323 295.429382,214.840881 
	C254.851944,214.840881 214.651108,214.840881 173.983429,214.840881 
	C173.983429,194.963181 173.983429,175.388443 173.983429,155.633347 
	C169.197189,155.633347 164.872467,155.524673 160.561615,155.720825 
	C159.649124,155.762344 158.787323,156.917999 157.896255,158.552872 
M50.500053,8.845847 
	C41.070057,8.845847 31.640064,8.845847 22.184032,8.845847 
	C22.184032,36.977886 22.184032,64.557213 22.184032,92.206169 
	C27.867960,92.206169 33.293839,92.206169 39.289803,92.206169 
	C39.289803,70.129692 39.289803,48.248363 39.289803,26.326767 
	C79.271408,26.326767 118.679581,26.326767 158.288132,26.326767 
	C158.288132,48.271656 158.288132,69.970047 158.288132,91.675583 
	C163.426712,91.675583 168.204086,91.675583 173.560440,91.675583 
	C173.560440,69.748985 173.560440,48.027691 173.560440,26.305080 
	C214.413086,26.305080 254.681503,26.305080 295.572754,26.305080 
	C295.572754,48.377922 295.572754,70.234810 295.572754,92.044495 
	C301.079498,92.044495 305.956909,92.044495 310.701294,92.044495 
	C310.701294,64.117493 310.701294,36.555626 310.701294,8.845846 
	C224.081985,8.845846 137.791031,8.845846 50.500053,8.845847 
M239.099426,75.283722 
	C253.518311,76.161072 261.869476,84.181679 265.240723,97.767029 
	C274.740234,97.767029 283.951721,97.767029 293.573517,97.767029 
	C291.232605,80.814682 283.206665,68.047913 268.930511,59.380211 
	C259.719299,53.787666 249.408951,52.052486 238.819504,51.445652 
	C210.016342,49.795082 186.685303,65.757240 178.557800,93.021568 
	C173.400467,110.322266 173.203857,127.917252 177.485535,145.352600 
	C183.656097,170.479614 200.801575,185.844788 225.801483,189.563461 
	C257.387451,194.261795 283.171295,178.364807 291.414764,149.077835 
	C292.106537,146.620102 292.589569,144.103607 293.222443,141.387650 
	C283.496429,141.387650 274.536957,141.387650 266.103851,141.387650 
	C263.664551,146.345352 261.990417,151.362411 259.041168,155.462204 
	C246.379822,173.062958 217.085587,168.816223 208.203979,147.691742 
	C200.504990,129.380051 201.086578,110.470383 209.227722,92.361214 
	C214.655716,80.287262 224.751953,74.521393 239.099426,75.283722 
M238.608643,128.356277 
	C238.030731,131.967575 240.333954,131.847946 242.865784,131.842300 
	C265.181427,131.792603 287.497284,131.816910 309.813049,131.799149 
	C310.759033,131.798401 311.704926,131.599533 312.665649,131.491287 
	C312.665649,125.444824 312.665649,119.693398 312.665649,114.044891 
	C287.853119,114.044891 263.308258,114.044891 238.609177,114.044891 
	C238.609177,118.739952 238.609177,123.062653 238.608643,128.356277 
M31.474556,132.234070 
	C34.039143,132.234070 36.603725,132.234070 39.166008,132.234070 
	C39.166008,126.043945 39.166008,120.608109 39.166008,115.100250 
	C33.556820,115.100250 28.161337,115.100250 22.728027,115.100250 
	C22.728027,120.913429 22.728027,126.438850 22.728027,132.234070 
	C25.555635,132.234070 28.031836,132.234070 31.474556,132.234070 
z"/>
<path fill="#040404" opacity="1.000000" stroke="none" 
	d="
M74.228127,95.343491 
	C77.760674,97.755173 80.841423,100.687271 84.467552,101.738976 
	C96.285408,105.166557 108.310959,107.874146 120.237335,110.933846 
	C123.617729,111.801086 126.988953,112.768471 130.268036,113.955971 
	C154.177963,122.614746 162.769592,149.002029 148.618759,170.276184 
	C142.861481,178.931610 134.872162,184.883209 125.005066,187.776428 
	C107.102341,193.025848 89.095650,192.952545 71.547829,186.298248 
	C53.451958,179.436111 43.118317,163.894653 44.308697,146.202866 
	C53.055347,146.202866 61.823746,146.202866 70.597534,146.202393 
	C70.780853,146.464630 71.049416,146.704102 71.123695,146.993454 
	C75.114029,162.537750 81.756607,168.084457 97.941734,167.901764 
	C104.642426,167.826126 111.538422,166.725449 117.953354,164.790543 
	C124.431511,162.836548 127.527893,157.285187 127.577316,150.457169 
	C127.625763,143.762543 123.406624,139.861816 117.661278,138.171661 
	C106.185593,134.795746 94.514267,132.087570 82.938187,129.048584 
	C79.238495,128.077332 75.537704,127.070335 71.916916,125.844803 
	C45.640503,116.950958 37.302200,86.148361 55.334221,64.825996 
	C63.204674,55.519402 73.580727,51.101536 85.327995,49.588032 
	C102.448341,47.382275 118.944061,48.756672 133.597443,59.149086 
	C145.072647,67.287491 150.035004,78.670341 150.470291,92.713501 
	C141.308838,92.713501 132.544876,92.713501 123.823441,92.713501 
	C118.107780,73.877579 97.797050,66.046265 80.426834,75.853241 
	C73.057411,80.013901 70.750153,86.916695 74.228127,95.343491 
z"/>
<path fill="#060606" opacity="1.000000" stroke="none" 
	d="
M157.899200,158.056595 
	C158.787323,156.917999 159.649124,155.762344 160.561615,155.720825 
	C164.872467,155.524673 169.197189,155.633347 173.983429,155.633347 
	C173.983429,175.388443 173.983429,194.963181 173.983429,214.840881 
	C214.651108,214.840881 254.851944,214.840881 295.429382,214.840881 
	C295.429382,194.246323 295.429382,173.820068 295.429382,153.131973 
	C301.366058,153.131973 306.928955,153.131973 312.484589,153.131973 
	C312.484589,179.870193 312.484589,206.454041 312.484589,233.167511 
	C215.663452,233.167511 119.294556,233.167511 22.422691,233.167511 
	C22.422691,206.239502 22.422691,179.847519 22.422691,153.160736 
	C27.417070,153.160736 32.666416,153.160736 38.487438,153.160736 
	C38.487438,173.640244 38.487438,194.175262 38.487438,214.931122 
	C78.473907,214.931122 117.894463,214.931122 157.896255,214.931122 
	C157.896255,196.090958 157.896255,177.321915 157.899200,158.056595 
z"/>
<path fill="#020202" opacity="1.000000" stroke="none" 
	d="
M51.000057,8.845846 
	C137.791031,8.845846 224.081985,8.845846 310.701294,8.845846 
	C310.701294,36.555626 310.701294,64.117493 310.701294,92.044495 
	C305.956909,92.044495 301.079498,92.044495 295.572754,92.044495 
	C295.572754,70.234810 295.572754,48.377922 295.572754,26.305080 
	C254.681503,26.305080 214.413086,26.305080 173.560440,26.305080 
	C173.560440,48.027691 173.560440,69.748985 173.560440,91.675583 
	C168.204086,91.675583 163.426712,91.675583 158.288132,91.675583 
	C158.288132,69.970047 158.288132,48.271656 158.288132,26.326767 
	C118.679581,26.326767 79.271408,26.326767 39.289803,26.326767 
	C39.289803,48.248363 39.289803,70.129692 39.289803,92.206169 
	C33.293839,92.206169 27.867960,92.206169 22.184032,92.206169 
	C22.184032,64.557213 22.184032,36.977886 22.184032,8.845847 
	C31.640064,8.845847 41.070057,8.845847 51.000057,8.845846 
z"/>
<path fill="#030303" opacity="1.000000" stroke="none" 
	d="
M238.657898,75.274094 
	C224.751953,74.521393 214.655716,80.287262 209.227722,92.361214 
	C201.086578,110.470383 200.504990,129.380051 208.203979,147.691742 
	C217.085587,168.816223 246.379822,173.062958 259.041168,155.462204 
	C261.990417,151.362411 263.664551,146.345352 266.103851,141.387650 
	C274.536957,141.387650 283.496429,141.387650 293.222443,141.387650 
	C292.589569,144.103607 292.106537,146.620102 291.414764,149.077835 
	C283.171295,178.364807 257.387451,194.261795 225.801483,189.563461 
	C200.801575,185.844788 183.656097,170.479614 177.485535,145.352600 
	C173.203857,127.917252 173.400467,110.322266 178.557800,93.021568 
	C186.685303,65.757240 210.016342,49.795082 238.819504,51.445652 
	C249.408951,52.052486 259.719299,53.787666 268.930511,59.380211 
	C283.206665,68.047913 291.232605,80.814682 293.573517,97.767029 
	C283.951721,97.767029 274.740234,97.767029 265.240723,97.767029 
	C261.869476,84.181679 253.518311,76.161072 238.657898,75.274094 
z"/>
<path fill="#040404" opacity="1.000000" stroke="none" 
	d="
M238.608917,127.870819 
	C238.609177,123.062653 238.609177,118.739952 238.609177,114.044891 
	C263.308258,114.044891 287.853119,114.044891 312.665649,114.044891 
	C312.665649,119.693398 312.665649,125.444824 312.665649,131.491287 
	C311.704926,131.599533 310.759033,131.798401 309.813049,131.799149 
	C287.497284,131.816910 265.181427,131.792603 242.865784,131.842300 
	C240.333954,131.847946 238.030731,131.967575 238.608917,127.870819 
z"/>
<path fill="#070707" opacity="1.000000" stroke="none" 
	d="
M30.991297,132.234070 
	C28.031836,132.234070 25.555635,132.234070 22.728027,132.234070 
	C22.728027,126.438850 22.728027,120.913429 22.728027,115.100250 
	C28.161337,115.100250 33.556820,115.100250 39.166008,115.100250 
	C39.166008,120.608109 39.166008,126.043945 39.166008,132.234070 
	C36.603725,132.234070 34.039143,132.234070 30.991297,132.234070 
z"/>
</svg>